<svg width="40" height="40" viewBox="0 0 40 40" fill="none" xmlns="http://www.w3.org/2000/svg">
<path d="M20 40C8.956 40 0 31.044 0 20C0 8.956 8.956 0 20 0C31.044 0 40 8.956 40 20C40 31.044 31.044 40 20 40Z" fill="url(#paint0_linear_46_11653)"/>
<path d="M19.9997 8.80668C23.6437 8.80668 24.0758 8.81868 25.5158 8.88668C26.8477 8.94668 27.5717 9.17068 28.0517 9.35868C28.6877 9.60668 29.1438 9.90268 29.6198 10.3787C30.0958 10.8547 30.3918 11.3107 30.6397 11.9467C30.8278 12.4267 31.0477 13.1507 31.1117 14.4827C31.1757 15.9227 31.1917 16.3547 31.1917 19.9987C31.1917 23.6427 31.1797 24.0747 31.1117 25.5147C31.0517 26.8467 30.8278 27.5707 30.6397 28.0507C30.3918 28.6867 30.0958 29.1427 29.6198 29.6187C29.1438 30.0947 28.6877 30.3907 28.0517 30.6387C27.5717 30.8267 26.8477 31.0467 25.5158 31.1107C24.0758 31.1747 23.6437 31.1907 19.9997 31.1907C16.3557 31.1907 15.9237 31.1787 14.4837 31.1107C13.1518 31.0507 12.4278 30.8267 11.9478 30.6387C11.3117 30.3907 10.8557 30.0947 10.3797 29.6187C9.90375 29.1427 9.60775 28.6867 9.35975 28.0507C9.17175 27.5707 8.95175 26.8467 8.88775 25.5147C8.82375 24.0747 8.80775 23.6427 8.80775 19.9987C8.80775 16.3547 8.81975 15.9227 8.88775 14.4827C8.94775 13.1507 9.17175 12.4267 9.35975 11.9467C9.60775 11.3107 9.90375 10.8547 10.3797 10.3787C10.8557 9.90268 11.3117 9.60668 11.9478 9.35868C12.4278 9.17068 13.1518 8.95068 14.4837 8.88668C15.9237 8.81868 16.3557 8.80668 19.9997 8.80668ZM19.9997 6.34668C16.2917 6.34668 15.8277 6.36268 14.3717 6.43068C12.9197 6.49868 11.9277 6.72668 11.0557 7.06668C10.1597 7.41068 9.39575 7.87868 8.63975 8.63868C7.87975 9.39868 7.41575 10.1587 7.06375 11.0587C6.72775 11.9267 6.49575 12.9187 6.42775 14.3747C6.35975 15.8307 6.34375 16.2947 6.34375 20.0027C6.34375 23.7107 6.35975 24.1747 6.42775 25.6307C6.49575 27.0827 6.72375 28.0747 7.06375 28.9467C7.41175 29.8387 7.87975 30.6027 8.63975 31.3587C9.39975 32.1187 10.1597 32.5827 11.0597 32.9347C11.9277 33.2707 12.9197 33.5027 14.3757 33.5707C15.8317 33.6387 16.2957 33.6547 20.0037 33.6547C23.7118 33.6547 24.1757 33.6387 25.6317 33.5707C27.0837 33.5027 28.0757 33.2747 28.9477 32.9347C29.8397 32.5867 30.6038 32.1187 31.3598 31.3587C32.1198 30.5987 32.5838 29.8387 32.9358 28.9387C33.2718 28.0707 33.5037 27.0787 33.5717 25.6227C33.6397 24.1667 33.6558 23.7027 33.6558 19.9947C33.6558 16.2867 33.6397 15.8227 33.5717 14.3667C33.5037 12.9147 33.2758 11.9227 32.9358 11.0507C32.5878 10.1587 32.1198 9.39468 31.3598 8.63868C30.5998 7.87868 29.8398 7.41468 28.9398 7.06268C28.0718 6.72668 27.0797 6.49468 25.6237 6.42668C24.1717 6.36268 23.7077 6.34668 19.9997 6.34668Z" fill="white"/>
<path d="M20.0003 12.9873C16.1283 12.9873 12.9883 16.1273 12.9883 19.9993C12.9883 23.8713 16.1283 27.0113 20.0003 27.0113C23.8723 27.0113 27.0123 23.8713 27.0123 19.9993C27.0123 16.1273 23.8723 12.9873 20.0003 12.9873ZM20.0003 24.5513C17.4883 24.5513 15.4483 22.5153 15.4483 19.9993C15.4483 17.4833 17.4883 15.4473 20.0003 15.4473C22.5123 15.4473 24.5523 17.4833 24.5523 19.9993C24.5523 22.5153 22.5123 24.5513 20.0003 24.5513Z" fill="white"/>
<path d="M27.2884 14.3532C28.1942 14.3532 28.9284 13.619 28.9284 12.7132C28.9284 11.8075 28.1942 11.0732 27.2884 11.0732C26.3827 11.0732 25.6484 11.8075 25.6484 12.7132C25.6484 13.619 26.3827 14.3532 27.2884 14.3532Z" fill="white"/>
<defs>
<linearGradient id="paint0_linear_46_11653" x1="5.85788" y1="34.1422" x2="34.1422" y2="5.85788" gradientUnits="userSpaceOnUse">
<stop stop-color="#FFD521"/>
<stop offset="0.0551048" stop-color="#FFD020"/>
<stop offset="0.1241" stop-color="#FEC01E"/>
<stop offset="0.2004" stop-color="#FCA71B"/>
<stop offset="0.2821" stop-color="#FF6900"/>
<stop offset="0.3681" stop-color="#F85510"/>
<stop offset="0.4563" stop-color="#F51E09"/>
<stop offset="0.5" stop-color="#F30005"/>
<stop offset="0.5035" stop-color="#F20007"/>
<stop offset="0.5966" stop-color="#E1003B"/>
<stop offset="0.6879" stop-color="#D30067"/>
<stop offset="0.7757" stop-color="#C70088"/>
<stop offset="0.8589" stop-color="#BF00A0"/>
<stop offset="0.9357" stop-color="#BB00AF"/>
<stop offset="1" stop-color="#B900B4"/>
</linearGradient>
</defs>
</svg>
